<svg xmlns="http://www.w3.org/2000/svg" xml:space="preserve" style="fill-rule:evenodd;clip-rule:evenodd;stroke-linejoin:round;stroke-miterlimit:2" viewBox="0 0 834 417"><path d="M0 0h833.253v416.642H0z" style="fill:none"/><path d="m529.114 74.305-20.399 59.309H437.62l-71.2 208.723h-74.897l71.201-208.723H189.008l20.398-59.309h319.708Z"/><path d="M622.86 342.337h-74.897L500.36 192.543l-51.246 149.794h-74.896l91.598-268.032h74.517L588.004 226l51.558-151.695h74.517L622.86 342.337Z"/><path d="M300.966 139.305h51.542L285.04 342.337h-51.542l67.468-203.032Z" style="fill:url(#a)"/><path d="M242.879 139.305h51.295l-67.468 203.032h-51.295l67.468-203.032Z" style="fill:url(#b)"/><path d="M186.642 139.305h49.199l-67.468 203.032h-49.199l67.468-203.032Z" style="fill:url(#c)"/><defs><linearGradient id="a" x1="0" x2="1" y1="0" y2="0" gradientTransform="matrix(207.006 0 0 203.032 230.3 240.821)" gradientUnits="userSpaceOnUse"><stop offset="0" style="stop-color:#000;stop-opacity:.5"/><stop offset=".15" style="stop-color:#000;stop-opacity:.74"/><stop offset=".33" style="stop-color:#000;stop-opacity:.93"/><stop offset="1" style="stop-color:#000;stop-opacity:1"/></linearGradient><linearGradient id="b" x1="0" x2="1" y1="0" y2="0" gradientTransform="matrix(207.006 0 0 203.032 171.967 240.821)" gradientUnits="userSpaceOnUse"><stop offset="0" style="stop-color:#000;stop-opacity:.31"/><stop offset=".15" style="stop-color:#000;stop-opacity:.55"/><stop offset=".33" style="stop-color:#000;stop-opacity:.73"/><stop offset="1" style="stop-color:#000;stop-opacity:.8"/></linearGradient><linearGradient id="c" x1="0" x2="1" y1="0" y2="0" gradientTransform="matrix(207.006 0 0 203.032 113.633 240.821)" gradientUnits="userSpaceOnUse"><stop offset="0" style="stop-color:#000;stop-opacity:.1"/><stop offset=".15" style="stop-color:#000;stop-opacity:.34"/><stop offset=".33" style="stop-color:#000;stop-opacity:.53"/><stop offset="1" style="stop-color:#000;stop-opacity:.6"/></linearGradient></defs></svg>