<?xml version="1.0" encoding="UTF-8" standalone="no"?><!DOCTYPE svg PUBLIC "-//W3C//DTD SVG 1.1//EN" "http://www.w3.org/Graphics/SVG/1.1/DTD/svg11.dtd"><svg width="100%" height="100%" viewBox="0 0 192 35" version="1.1" xmlns="http://www.w3.org/2000/svg" xmlns:xlink="http://www.w3.org/1999/xlink" xml:space="preserve" xmlns:serif="http://www.serif.com/" style="fill-rule:evenodd;clip-rule:evenodd;stroke-linejoin:round;stroke-miterlimit:2;"><g><path d="M192,0.726l-0,32.283l-32.283,-0l0,-32.283l32.283,-0Zm-21.951,30.584l0,-18.079l1.699,0l-0,18.079l18.553,-0l-0,-28.885l-8.22,0l-0,21.209l-1.699,-0.034l0,-21.175l-18.966,-0l0,28.885l8.633,0Z"/><path d="M159.717,0.726l-0,32.283l-32.283,-0l0,-32.283l32.283,-0Zm-30.584,30.584l28.885,-0l-0,-28.885l-28.885,-0l0,28.885Zm18.928,-19.438l0,9.991l-8.971,0l0,-9.991l8.971,0Z"/><path d="M127.434,33.01l-32.283,0l0,-32.283l32.283,-0l-0,32.283Zm-30.584,-12.032l18.079,0l0,1.699l-18.079,0l0,8.633l28.885,0l0,-18.966l-20.359,0l0,-1.699l20.359,0l0,-8.22l-28.885,-0l-0,18.553Z"/><path d="M75.198,21.114l19.953,-0.047l0,11.943l-32.283,-0l-0,-32.283l12.331,-0l-0,20.387Zm-1.699,-18.688l-8.932,0l0,28.885l28.885,0l0,-8.541l-19.953,0.047l0,-20.391Z"/><g transform="matrix(0.984899,-0.173132,0.173132,0.984899,28.913318,-10.841316)"><g transform="matrix(45.555556,0,0,45.555556,30.565532,44.878821)"></g><text x="-3.879px" y="44.879px" style="font-family:'Jersey25-Regular', 'Jersey 25';font-size:45.556px;">@</text></g><path d="M32.283,12.437l-10.392,-0.019l0.152,20.592l-11.41,0l-0.029,-20.389l-10.604,0l-0,-11.896l32.283,0.096l0,11.617Zm-1.699,-9.923l-28.885,-0.086l-0,8.493l10.601,-0l0.029,20.389l8.002,-0l-0.152,-20.595l10.405,0.019l0,-8.221Z"/></g></svg>