<?xml version="1.0" encoding="UTF-8"?><svg id="Layer_1" xmlns="http://www.w3.org/2000/svg" viewBox="0 0 1920 1920"><defs><style>.cls-1{fill:#00a863;stroke-width:0px;}</style></defs><path class="cls-1" d="M910.04,702.37c-70.87.9-141.74,2.76-212.62,5.58,1.07-60.63,2.58-121.26,4.54-181.89-31.76,2.35-63.52,5.07-95.27,8.15,2.95-68.25,6.67-136.51,11.16-204.76,127.65-19.4,255.3-29.32,382.94-29.79-.11,70.93-.19,141.87-.26,212.8-29.67.12-59.34.55-89.02,1.31-.64,62.87-1.13,125.73-1.47,188.6ZM723.44,681.83c53.73-2.19,107.47-3.77,161.2-4.72.48-62.75,1.15-125.5,2-188.25,29.59-.99,59.18-1.64,88.78-1.96.2-53.77.45-107.54.72-161.3-111.75,1.4-223.5,9.7-335.25,24.9-3.07,52.22-5.72,104.45-7.96,156.67,31.67-3.07,63.34-5.75,95.02-8.05-1.91,60.9-3.42,121.8-4.51,182.7Z"/><path class="cls-1" d="M1419.54,712.39c-133.21-6.93-266.43-10.48-399.64-10.65-.07-134.03-.21-268.05-.41-402.08,127.65.46,255.29,10.39,382.94,29.79,8.4,127.65,14.1,255.29,17.11,382.94ZM1045.44,676.08c115.98.58,231.96,4.03,347.95,10.35-2.74-111.98-7.4-223.95-13.98-335.93-111.75-15.2-223.5-23.5-335.25-24.9.61,116.83,1.04,233.65,1.29,350.48Z"/><path class="cls-1" d="M1000.38,1126.54c-133.37-.15-266.74-3.34-400.11-9.57-2.7-127.65-2.7-255.3,0-382.94,70.96-3.31,141.91-5.77,212.87-7.36-.61,62.03-.93,124.07-.97,186.1,62.72-.09,125.45-.14,188.17-.14,0,71.3.01,142.61.05,213.91ZM625.43,1093.46c116.43,4.44,232.86,6.87,349.29,7.27-.08-54.12-.13-108.25-.13-162.37-62.72-.02-125.45-.07-188.17-.18-.04-61.84.23-123.69.83-185.53-53.94,1.19-107.88,2.82-161.82,4.87-1.92,111.98-1.92,223.95,0,335.93Z"/><path class="cls-1" d="M1232.35,692.18c-8.52-.26-17.05-.5-25.57-.72-.71-62.03-1.71-124.07-3-186.1,8.39.41,16.79.84,25.18,1.29,1.45,61.84,2.58,123.69,3.39,185.53Z"/><path class="cls-1" d="M1420.02,1116.97c-133.37,6.23-266.74,9.42-400.11,9.57.06-134.03.06-268.05,0-402.08,133.37.15,266.74,3.34,400.11,9.57,2.7,127.65,2.7,255.3,0,382.94ZM1045.57,1100.74c116.43-.41,232.86-2.83,349.29-7.27,1.92-111.98,1.92-223.95,0-335.93-116.43-4.44-232.86-6.87-349.29-7.27.18,116.83.18,233.65,0,350.48Z"/><path class="cls-1" d="M1409.03,873.71c-90.64-1.1-181.27-1.83-271.91-2.18-.01-8.54-.03-17.09-.05-25.63,90.6.52,181.2,1.59,271.8,3.21.07,8.2.12,16.4.17,24.59Z"/><path class="cls-1" d="M1289.81,1002.56c-85.66,1.06-171.33,1.63-256.99,1.72,0-8.58,0-17.16,0-25.74,85.7-.06,171.4-.44,257.1-1.16-.03,8.39-.07,16.79-.12,25.18Z"/><path class="cls-1" d="M1402.43,1521.55c-127.65,19.39-255.29,29.32-382.94,29.79.2-134.03.34-268.05.41-402.08,133.21-.17,266.43-3.71,399.64-10.65-3,127.65-8.71,255.3-17.11,382.94ZM1044.15,1525.4c111.75-1.4,223.5-9.7,335.25-24.9,6.58-111.98,11.25-223.95,13.98-335.93-115.98,6.32-231.96,9.77-347.95,10.35-.25,116.83-.68,233.65-1.29,350.48Z"/><path class="cls-1" d="M1159.64,1534.26c-8.19.46-16.38.89-24.57,1.27,1.77-90.23,3.15-180.47,4.13-270.7,8.46-.22,16.92-.45,25.38-.71-1.18,90.05-2.82,180.09-4.94,270.14Z"/><path class="cls-1" d="M1291.21,1407.7c-8.33.69-16.65,1.35-24.98,1.98,2.72-84.05,4.73-168.11,6.03-252.16,8.52-.3,17.05-.62,25.57-.95-1.43,83.71-3.63,167.42-6.62,251.13Z"/><path class="cls-1" d="M1000.8,1550.35c-127.67-.46-255.34-10.37-383-29.74-8.39-127.65-14.08-255.29-17.07-382.94,133.22,6.9,266.44,10.44,399.66,10.6.07,134.03.21,268.05.41,402.08ZM640.84,1499.54c111.77,15.18,223.54,23.46,335.3,24.86-.61-116.83-1.03-233.65-1.28-350.48-115.99-.58-231.98-4.02-347.97-10.31,2.73,111.98,7.38,223.95,13.95,335.93Z"/><path class="cls-1" d="M818.12,1417.7c-8.32-.47-16.65-.98-24.97-1.52-1.37-49.91-2.53-99.82-3.48-149.73,8.46.37,16.91.72,25.37,1.05.84,50.06,1.87,100.13,3.08,150.19Z"/></svg>