<svg xmlns="http://www.w3.org/2000/svg" fill="none" viewBox="0 0 100 100"><g clip-path="url(#a)"><path fill="#ff5d01" d="M35.7 85.2c-4.5-4.2-5.8-12.8-4-19.1 3.3 4 7.8 5.2 12.5 6 7.2 1 14.3.6 21-2.7l2.3-1.4q1 2.7.5 5.6-.9 6.7-6.4 10.7l-4.4 3c-4.6 3.2-5.9 6.8-4.1 12.1l.1.6a12 12 0 0 1-5.3-4.6 13 13 0 0 1-2-7q0-1.8-.3-3.7-.5-4.4-4.4-4.4a5 5 0 0 0-5.3 4.2z"/><path fill="#fff" d="M10 65s13.3-6.5 26.7-6.5l10-31.3q.9-2.4 2.8-2.5 2 .1 2.7 2.5l10.1 31.3C78.1 58.5 89 65 89 65L66.3 3q-1-2.8-3.2-3H35.9q-2.2.2-3.2 3z"/></g><defs><clipPath id="a"><path fill="#fff" d="M0 0h100v100H0z"/></clipPath></defs></svg>