<svg xmlns="http://www.w3.org/2000/svg" fill="none" viewBox="0 0 100 100"><g clip-path="url(#a)"><path fill="#fff" d="M98.014 29.794c.375 0 .75.114 1.075.358.309.228.504.537.618.814.228.537.293 1.188.293 1.839 0 .358-.049.797-.114 1.237v.065l-8.284 43.115c-.651 3.597-1.384 6.413-2.214 8.415-.814 1.97-1.774 3.516-3.027 4.395-1.221.862-2.75 1.253-4.493 1.302h-.488c-2.604 0-4.769-.684-6.006-2.41l-.032-.032a.4.4 0 0 0-.082-.097c-.293-.391-.406-.847-.472-1.205a9.4 9.4 0 0 1-.114-1.595c0-1.188.098-2.197.342-2.962.228-.716.782-1.693 1.986-1.693l.212.016c.032 0 .065.017.081.017.049.016.098.016.13.032.098.016.212.05.358.098l1.237.358h.017l1.236.342c.147.032.277.065.359.081a.4.4 0 0 0 .114.016s.016 0 .032-.016.065-.032.13-.098c.147-.146.358-.423.586-.927.423-.944.684-2.393.684-4.46 0-.114-.049-.553-.212-1.448-.146-.83-.374-1.986-.683-3.435L72.168 34.01l-.016-.065v-.049a9 9 0 0 1-.114-1.188c0-.602.065-1.22.276-1.725.114-.26.294-.553.57-.797.31-.245.684-.375 1.058-.375h5.632a2.63 2.63 0 0 1 1.936.814l.212.244c.195.26.326.554.44.847.146.39.244.83.325 1.318l4.948 26.237 3.874-26.042c.13-.944.358-1.855.83-2.458a2.42 2.42 0 0 1 1.953-.944h3.906zM58.92 8c.424 0 .83.114 1.205.375.358.244.602.586.765.927.309.651.407 1.482.407 2.36V29.81h5.273c.407 0 .814.098 1.172.342.358.228.602.553.781.895.326.635.423 1.433.423 2.263v2.506c0 .814-.097 1.595-.423 2.23-.179.325-.423.65-.781.879a2.15 2.15 0 0 1-1.156.325h-5.29v23.73c0 1.759.115 3.175.326 4.265.228 1.123.505 1.774.765 2.1.195.244.358.407.505.52l.358.228.016.017.472.13c.195.032.423.049.7.049h3.304c.732 0 1.448.276 1.92.944.424.586.538 1.318.538 1.985v2.8c0 .732-.13 1.514-.554 2.132-.488.684-1.22.977-2.002.977l-4.736.016c-1.302 0-2.441-.098-3.45-.277-1.091-.211-2.182-.667-3.272-1.318-1.172-.716-2.116-1.677-2.848-2.897-.733-1.221-1.286-2.849-1.71-4.802-.422-1.985-.634-4.33-.634-6.998V39.267h-2.181c-.39 0-.798-.098-1.156-.326s-.602-.553-.78-.879c-.326-.635-.424-1.416-.424-2.23v-2.506c0-.83.098-1.628.423-2.262.18-.342.423-.652.781-.896a2.05 2.05 0 0 1 1.172-.341h2.181v-.098l.846-18.1v-.015l.05-.635c.08-.619.21-1.205.439-1.677.342-.683.976-1.285 1.92-1.285h4.655zM15.3 9.905c.293.048.587.146.863.341.342.245.57.57.716.88.277.601.375 1.367.375 2.148v61.49c0 1.091-.098 2.051-.391 2.784-.146.374-.374.765-.716 1.058a1.98 1.98 0 0 1-1.319.488H7.716c-.488 0-.944-.179-1.318-.504-.342-.31-.554-.7-.684-1.058-.277-.733-.374-1.677-.374-2.767v-51.4c-.782.195-1.416.358-1.872.472-.31.081-.554.13-.716.179a2 2 0 0 0-.196.049c-.016 0-.048.016-.081.016-.016 0-.033 0-.049.016h-.211a1.87 1.87 0 0 1-1.075-.276 2 2 0 0 1-.765-.863C.081 22.356 0 21.591 0 20.842v-4.46c0-.716.114-1.432.423-2.018a2.4 2.4 0 0 1 1.595-1.237l12.289-3.174c.228-.065.472-.08.716-.08l.293.015zm23.406-.082c.293.05.585.147.846.342.342.244.57.57.716.879.277.602.358 1.367.358 2.148v61.491c0 1.09-.098 2.051-.39 2.783-.147.375-.375.765-.717 1.058-.374.326-.83.489-1.318.489h-7.113c-.488 0-.944-.18-1.318-.505-.342-.31-.553-.7-.684-1.058-.276-.732-.374-1.676-.374-2.767v-51.4c-.781.196-1.416.359-1.872.473-.309.08-.553.13-.716.179a2 2 0 0 0-.195.048c-.017 0-.049.017-.082.017-.016 0-.032 0-.048.016h-.212a1.87 1.87 0 0 1-1.074-.277 2 2 0 0 1-.765-.862c-.293-.603-.375-1.351-.375-2.116V16.3c0-.716.114-1.416.424-2.018a2.4 2.4 0 0 1 1.595-1.237l12.272-3.158a2.6 2.6 0 0 1 .716-.081l.293.016z"/></g><defs><clipPath id="a"><path fill="#fff" d="M0 0h100v100H0z"/></clipPath></defs></svg>