<svg xmlns="http://www.w3.org/2000/svg" fill="none" viewBox="0 0 100 100"><g clip-path="url(#a)"><path fill="#fff" d="M98 29.8q.7 0 1 .4.6.3.7.8.3.8.3 1.8l-.1 1.2v.1l-8.3 43.1a43 43 0 0 1-2.2 8.4q-1.2 3.1-3 4.4a8 8 0 0 1-4.5 1.3h-.5q-4 .2-6-2.4l-.1-.1-.5-1.2-.1-1.6q0-1.8.3-3c.2-.7.8-1.7 2-1.7h.3l.1.1.4.1 1.2.4 1.3.3h.3l.1.1.2-.1q.3-.2.6-1a11 11 0 0 0 .5-5.8l-.7-3.5L72.2 34v-.1l-.2-1.2q0-1 .3-1.7.2-.5.6-.8.5-.4 1-.4h5.7a3 3 0 0 1 2 .8l.1.3.5.8.3 1.3 5 26.3 3.8-26q.2-1.6.8-2.5a2 2 0 0 1 2-1zM59 8q.5 0 1.1.4.5.4.8.9.4 1 .4 2.4v18.1h5.3q.6 0 1.1.4.6.3.8.8.4 1 .4 2.3v2.5a5 5 0 0 1-.4 2.2q-.2.6-.8 1l-1.1.2h-5.3V63q0 2.6.3 4.2t.8 2.1l.5.6.3.2.5.1h4q1.2 0 2 1 .6 1 .5 2V76q0 1.1-.6 2.1t-2 1H63q-2 0-3.4-.2-1.7-.3-3.3-1.4a8 8 0 0 1-2.9-2.8q-1-2-1.7-4.9a34 34 0 0 1-.6-7V39.4h-2.2q-.6 0-1.1-.4l-.8-.8a5 5 0 0 1-.4-2.3v-2.5q-.1-1.2.4-2.2.3-.6.8-1l1.1-.3H51l.9-18.2V11q0-1 .4-1.7.6-1.2 2-1.3zM15.2 9.9a2 2 0 0 1 1.6 1.2q.4 1 .4 2.2v61.5q0 1.6-.4 2.7-.2.6-.8 1.1a2 2 0 0 1-1.3.5h-7a2 2 0 0 1-1.4-.5l-.7-1a8 8 0 0 1-.4-2.8V23.4l-1.8.4-.7.2h-.3v.1h-.3l-1-.3-.8-.8a5 5 0 0 1-.4-2.2v-4.4q0-1.2.4-2A2 2 0 0 1 2 13l12.3-3 .7-.1zm23.4 0q.4 0 .9.3l.7.8q.3 1 .3 2.2v61.5q.1 1.5-.4 2.8-.1.5-.7 1a2 2 0 0 1-1.3.5H31a2 2 0 0 1-1.3-.5q-.6-.5-.7-1a8 8 0 0 1-.4-2.8V23.3l-1.9.5-.7.1v.1h-.3l-1-.3-.9-.8a5 5 0 0 1-.3-2.1v-4.5q-.1-1 .4-2a2 2 0 0 1 1.6-1.3l12.2-3h1z"/></g><defs><clipPath id="a"><path fill="#fff" d="M0 0h100v100H0z"/></clipPath></defs></svg>