<svg xmlns="http://www.w3.org/2000/svg" fill="none" viewBox="0 0 100 100"><g clip-path="url(#a)"><path fill="#de4c36" d="M98.1 45.5 54.5 2a6.4 6.4 0 0 0-9.2 0l-9 9 11.5 11.6a8 8 0 0 1 7.8 1.8 8 8 0 0 1 1.9 7.9l11 11a8 8 0 0 1 8 2 7.7 7.7 0 0 1 0 10.7A7.7 7.7 0 0 1 64 47.6L53.6 37.3v27.2a7.7 7.7 0 0 1 2 12.3 7.7 7.7 0 0 1-10.8 0 7.7 7.7 0 0 1 2.5-12.5V36.8a8 8 0 0 1-2.5-1.7 8 8 0 0 1-1.6-8.4L31.8 15.4l-30 30a6.4 6.4 0 0 0 0 9l43.7 43.7a6.4 6.4 0 0 0 9.2 0L98 54.7a6.4 6.4 0 0 0 0-9.2"/></g><defs><clipPath id="a"><path fill="#fff" d="M0 0h100v100H0z"/></clipPath></defs></svg>