<svg xmlns="http://www.w3.org/2000/svg" fill="none" viewBox="0 0 100 100"><g fill="#fff" clip-path="url(#a)"><path d="M50 1a50 50 0 0 0-16 97q4 0 4-2v-9c-14 3-17-6-17-6q-5-8-6-7c-4-4 0-4 0-4 6 1 8 6 8 6 5 7 12 5 15 4q0-5 3-7c-11-1-23-5-23-25q0-8 5-13-2-2 1-13s4-2 13 5a48 48 0 0 1 26 0c9-7 13-5 13-5q3 11 1 13 5 5 5 13c0 20-12 24-23 25q3 3 3 9v14q0 2 4 2A50 50 0 0 0 50 1"/><path d="M19 72h-2zm4 5h-1v-1zm3 3h-2v-1zm3 2-1-1h2zm5 0-1 1-2-1 2-1zm4 0-1 1-1-1 1-1z"/></g><defs><clipPath id="a"><path fill="#fff" d="M0 0h100v100H0z"/></clipPath></defs></svg>