<svg xmlns="http://www.w3.org/2000/svg" fill="none" viewBox="0 0 100 100"><path fill="#0ae448" d="m50.2 44.2.2-.4q0-4.1-2-6.4T42.2 35a10 10 0 0 0-7 2.6 9 9 0 0 0-2.7 6.1c-.1 4.2 2.2 6.8 4.8 9.3 2 2.1 2.4 3.1 2.4 4.3q0 2.1-1.8 2.1-.6 0-1-.4-.7-.7-.6-2.2v-.4l-.5-.2h-6l-.5.5q-.3 4.3 2 6.6 2.1 2.3 6.4 2.3c5.5 0 9.2-3.5 9.3-8.8 0-3.4-1.2-5.9-4.2-8.7-2.3-2.2-3-3.5-3-5q0-1.9 2-2c2 0 1.7.9 1.7 2.6a1 1 0 0 0 .7.7h5.7z"/><path fill="#0ae448" d="M32.3 49.3q0-.5-.5-.6H21.1q-.4 0-.6.5l-1 4.7v.4l.5.2h1.8v.4q-.5 2-2 3.1c-.9.8-2.4 1.2-3.4.6-1.2-.8-1.4-2.6-1.5-3.8a19 19 0 0 1 1.5-8c.7-1.8 2.1-5 4.5-5q2-.1 2.1 3.4a.4.4 0 0 0 .4.4h6.3l.5-.6q0-5-2.2-7.5a8 8 0 0 0-6-2.4c-8.6 0-13 8.6-14 17.1q-.7 7 2.5 10.7a8 8 0 0 0 6.1 2.6q4.5 0 7.2-2.1 3.3-2.5 5-8.7a.2.2 0 0 1 .3-.2h1.3q.5 0 .7-.5z"/><path fill="#0ae448" fill-rule="evenodd" d="M68.2 64.6V36l-.5-.5h-8.9q-.4 0-.5.4L45.4 64.4q-.1.6.5.7h6.2q.5 0 .7-.3l1.2-3q.2-.5.6-.4h6q.5-.1.4.4l-.1 2.8.3.5h6.5l.4-.2zm-11-9.5H57l-.2-.1v-.3l4.5-11 .2-.4q0-.2.2 0l-.6 11.3q.1.5-.4.5zm19-19.5h4.7q10.5 0 10.3 9.3c0 7.4-4.5 12.7-11.2 14l-3 .2h-3.2l-.2.2.1.2.4.2 1 .5 1 .5.4.2q.3.1.2.6l-.7 3.2q0 .4-.6.4h-5.9l-.4-.2-.1-.4L75.6 36q0-.4.6-.4m3 17c3.2-.2 4.9-3.8 5-7.4q0-3.1-2.1-3.3h-4.3a.2.2 0 0 0-.2.3s2.8 1.5 3 1.6v.5l-1.8 8.2z" clip-rule="evenodd"/></svg>