<svg xmlns="http://www.w3.org/2000/svg" fill="none" viewBox="0 0 100 100"><g clip-path="url(#a)"><path fill="#f7df1e" d="M100 0H0v100h100z"/><path fill="#000" d="M67.2 78.1c2 3.3 4.6 5.7 9.2 5.7 4 0 6.4-2 6.4-4.6 0-3.2-2.5-4.4-6.8-6.2l-2.4-1c-6.7-3-11.3-6.6-11.3-14.2 0-7 5.4-12.4 13.8-12.4 6 0 10.3 2 13.4 7.5l-7.3 4.7c-1.7-2.9-3.4-4-6-4-2.8 0-4.6 1.7-4.6 4 0 2.8 1.8 4 5.8 5.7l2.3 1c8 3.4 12.5 7 12.5 14.8 0 8.4-6.6 13-15.5 13s-14.4-4-17.2-9.5zM34 79c1.5 2.7 2.8 4.9 6 4.9 3.1 0 5-1.2 5-6V46h9.5v32c0 9.7-5.7 14.2-14 14.2-7.6 0-12-4-14.2-8.6z"/></g><defs><clipPath id="a"><path fill="#fff" d="M0 0h100v100H0z"/></clipPath></defs></svg>