<svg xmlns="http://www.w3.org/2000/svg" fill="none" viewBox="0 0 100 100"><path fill="#599636" d="m50.1.3 2.7 5 2 2.5a70 70 0 0 1 6.3 7 62 62 0 0 1 11.8 33 47 47 0 0 1-13.7 34.8 40 40 0 0 1-5 4.2c-.9 0-1.3-.7-1.7-1.3a11 11 0 0 1-1.4-4 19 19 0 0 1-.4-5v-.7c0-.1-.9-75.1-.6-75.5"/><path fill="#6cac48" d="M50.1.1h-.3q0 1.7-1 3t-2.3 2.5a52 52 0 0 0-11.7 14.9A60 60 0 0 0 28 44.9c-.2 3 1 14 2 17.2a52 52 0 0 0 18.5 25.6q.6-.1.7-.7l.5-2.1 1-8.2z"/><path fill="#c2bfbf" d="M52.8 90.1q.3-1.8 1.4-3.3-1-.5-1.5-1.4l-.9-1.8q-1-3.5-1.1-7v-1.4c-.3.2-.3 2-.3 2.3a54 54 0 0 1-1 7.4q-.1 1.6-.9 2.8v.4q1.4 4.3 1.5 8.8v1c0 1.4 0 1.1 1 1.6q.7.1 1.4.5.4-.1.4-.5l-.2-1.8v-5z"/></svg>