<svg xmlns="http://www.w3.org/2000/svg" fill="none" viewBox="0 0 100 100"><path fill="#fff" d="M62.854 64.28h-6.856l-.573-.573v-16.05c0-2.856-1.122-5.069-4.566-5.146-1.772-.047-3.8 0-5.967.085l-.325.333v20.77l-.572.573h-6.857l-.572-.573V36.281l.572-.573H52.57c5.998 0 10.858 4.86 10.858 10.858v17.141z"/><path fill="#32e6e2" d="M27.024 79.47h-.944l-4.713-4.712v-.944l7.204-7.205h4.992l.665.666v4.991zm-5.657-53.304v-.944l4.713-4.713h.944l7.204 7.205v4.992l-.665.665h-4.992zm6.632 27.837H.573L0 53.43v-6.872l.573-.573h27.426l.572.573v6.872zm71.428 0H72.001l-.573-.573v-6.872l.573-.573h27.426l.573.573v6.872zM46.046 27.142V6.572l.572-.573h6.872l.573.573v20.57l-.573.572h-6.872zm0 66.274v-20.57l.572-.572h6.872l.573.573v20.569l-.573.573h-6.872z"/></svg>