<svg xmlns="http://www.w3.org/2000/svg" fill="none" viewBox="0 0 100 100"><path fill="#fff" d="M62.9 64.3H56l-.6-.6v-16c0-2.9-1.1-5.1-4.5-5.2l-6 .1-.3.3v20.8l-.6.6h-7l-.5-.6V36.3l.5-.6h15.5c6 0 10.8 4.9 10.8 10.9v17.1z"/><path fill="#32e6e2" d="M27 79.5h-1l-4.6-4.7v-1l7.2-7.2h5l.6.7v5zm-5.6-53.3v-1l4.7-4.7h1l7.1 7.2v5l-.6.7h-5zM28 54H.6l-.6-.6v-6.8l.6-.6H28l.6.6v6.8zm71.4 0H72l-.6-.6v-6.8l.6-.6h27.4l.6.6v6.8zM46 27.1V6.6l.6-.6h6.9l.6.6V27l-.6.6h-6.9zm0 66.3V72.8l.6-.5h6.9l.6.5v20.6l-.6.6h-6.9z"/></svg>