<svg xmlns="http://www.w3.org/2000/svg" fill="none" viewBox="0 0 100 100"><g fill="#fff" clip-path="url(#a)"><path d="M66.5 40h17.4v3.2h-7v17h-3.4v-17h-7zm-28.7 0v3.2h-14v5.2h11.3v3.2H23.9V57h14v3.2H20.3V40zm8.7 0H42l16.2 20.1h4.5l-8-10 8-10h-4.5l-5.8 7.2zm4.7 14.4-2.3-2.8-7 8.6h4.6z"/><path fill-rule="evenodd" d="M20.5 60.1 4.3 40H0v20.1h3.5V44.3l12.7 15.8z" clip-rule="evenodd"/><path d="m84.7 60-.7-.2-.2-.7.2-.6.7-.3q.3 0 .6.3a1 1 0 0 1 .2 1l-.4.4zm5.9-8.5H92v6q0 .7-.3 1.3-.4.6-1 1-.6.2-1.4.2t-1.4-.2l-1-.8q-.3-.5-.3-1.3h1.5l.2.6.4.4H90l.4-.5q.2-.3.2-.8zm7.8 2.3a1 1 0 0 0-.5-.8q-.4-.3-1.1-.3l-.8.1-.6.4-.1.6v.5l.4.3.5.2.5.2.8.2q.5 0 1 .3.4.1.7.4.4.3.6.7t.2 1q0 .7-.4 1.3-.4.5-1 .8-.8.4-1.8.4t-1.8-.4l-1-.8q-.5-.6-.5-1.5H95q0 .5.3.8t.6.4.9.2.8-.2.6-.4l.3-.6-.2-.6-.6-.3-.8-.3-1-.3q-1-.2-1.6-.8-.6-.5-.6-1.4 0-.7.4-1.3t1.1-.9 1.6-.3 1.6.3 1 .9.5 1.2z"/></g><defs><clipPath id="a"><path fill="#fff" d="M0 40h100v20.3H0z"/></clipPath></defs></svg>