<svg xmlns="http://www.w3.org/2000/svg" fill="none" viewBox="0 0 100 100"><path fill="#8cc84b" d="M46.3 1a8 8 0 0 1 8.2 0l37.4 21.2c2.3 1.3 3.9 4 3.8 6.6v42.4a8 8 0 0 1-4.1 6.8L54.3 99a8 8 0 0 1-8.3-.2l-11-6.5q-1.3-.6-2.2-1.6.8-.7 2-1 2.4-.9 4.4-2 .6-.4 1.2 0l9.5 5.6c.7.4 1.4-.2 2-.5l36.5-20.6A1 1 0 0 0 89 71V29a1.3 1.3 0 0 0-.8-1.3L51.1 6.8a1.3 1.3 0 0 0-1.5 0l-37 21q-1 .4-.9 1.2v42a1 1 0 0 0 .7 1.1q5 3 10 5.6c1.8 1 4 1.6 6.1.9a5 5 0 0 0 3-4.4V32.5q.1-1 1.2-1.1h4.8c.6 0 1.1.7 1 1.3v42c0 3.7-1.5 7.7-5 9.5a15 15 0 0 1-13.7-.3l-10.6-6A8 8 0 0 1 5 71.3V28.8c0-2.7 1.6-5.4 4-6.7z"/><path fill="#8cc84b" d="M57.1 30.4c5.4-.3 11.2-.2 16.1 2.5 3.8 2 5.9 6.3 6 10.5q-.4 1-1.3.8h-4.7q-1-.2-1.2-1.1c-.4-2-1.5-4-3.4-5a19 19 0 0 0-9.4-1.3q-3.6-.2-6.7 1.6c-1.5 1-2 3.1-1.5 4.8.5 1.2 2 1.6 3 2 6.6 1.7 13.5 1.5 19.9 3.7 2.7 1 5.2 2.7 6.2 5.5 1.1 3.7.6 8.2-2 11.2a16 16 0 0 1-8.4 4.5q-6.4 1.4-12.7.5c-4-.4-8-1.5-11.1-4.2a12 12 0 0 1-3.8-9.2q.2-1 1.2-1H48q1 .2 1.1 1.2c.3 1.9 1 3.9 2.7 5 3.2 2.1 7.3 2 11 2 3-.1 6.4-.2 9-2.2 1.2-1.1 1.6-3 1.3-4.7-.4-1.4-1.9-2-3.1-2.5-6.5-2-13.5-1.3-19.8-3.6-2.6-.9-5.1-2.6-6.1-5.3-1.4-3.8-.8-8.4 2.1-11.3s7-4 11-4.4"/></svg>