<svg xmlns="http://www.w3.org/2000/svg" fill="none" viewBox="0 0 100 100"><path fill="#000" d="M98 60q0-3-4-3h-8q7-11 10-24 4-18 0-22Q87 0 72 0L60 2l-7-1q-7 0-13 3l-9-2Q19 1 11 5 1 12 2 28a130 130 0 0 0 10 37q4 8 9 9 3 2 9-2l1 2 4 1q6 2 12-1v5l1 11v1l4 6q4 3 7 3h4q6 0 11-7 4-5 4-20l1-1 12-2c2-1 9-5 7-10"/><path fill="#336791" d="M92 61c-11 2-12-2-12-2 12-17 17-40 13-45C81-1 61 6 60 6l-7-1q-8 0-12 4S5-6 6 28c1 7 10 54 22 40l9-10 7 2v2c-3 3-2 4-8 5s-3 4 0 4q6 3 14-4 2 3 1 11l1 11c1 2 2 8 10 7q10-3 11-12l1-8v-1q0-9 5-7h1l9-2q9-5 3-5"/><path fill="#fff" d="M43 31h-3v2l2 1h1l2-2zm33 0-2-1-2 2 2 1 2-1z"/><path fill="#fff" d="M96 61q-1-3-4-2-10 2-10 0 7-13 12-27l1-11-1-8Q85 3 72 3L60 5l-7-1q-8 0-12 3L31 4Q19 3 12 7q-8 6-7 21l5 22q5 20 12 21l2 1q2 0 5-4l8-8 5 1v2q-2 2-6 2-4 1-5 4c0 2 4 3 4 3l5 1 9-3 1 20c1 2 3 7 10 7h3q10-2 11-11l3-18 3 1 9-2c3-1 8-4 7-6M79 29v4l-1 5v15l-1-1-1-3c-3-4-8-14-6-18q2-3 9-2M72 5q12 2 19 9c4 5 0 25-11 43v-1h-1q4-7 2-14v-9l1-6q0-3-7-13-3-4-11-8zM27 67l-4 2q-5-2-11-20c-3-9-4-19-4-22q-1-12 6-17c7-6 19-2 24-1-8 8-8 22-8 23v13q-1 8 4 12l1 1zm9-12q-4-4-3-10V32q3-3 10-3l4 4q2 15-2 19l-1 2-1 4q-4 0-7-3m0 15-2-1 2-1q6-1 8-4l1-1 2-1 2 2v2q-6 7-13 4m26 24q-8 1-9-5c-1-2-2-13-1-25l-1-1q0-3-3-4h-3l2-4 1-2c1-4 4-9 1-21q-1-6-9-6l-7 3c0-4 2-13 7-18q5-5 12-4 16 2 21 9l6 10q-8 0-11 3c-4 6 2 17 5 22l1 2 3 5 1 1q-3-1-4 7l-2 19q-1 8-10 9m26-29-7 1h-4q0-5 2-4l1-1v1h12z"/></svg>