<svg xmlns="http://www.w3.org/2000/svg" fill="none" viewBox="0 0 100 100"><path fill="#000" d="M98.472 59.902c-.582-1.766-2.105-2.995-4.074-3.29-.929-.14-1.992-.08-3.251.18-2.194.454-3.821.627-5.009.66 4.483-7.59 8.129-16.246 10.227-24.393 3.394-13.175 1.58-19.177-.539-21.892C90.218 3.981 82.036.121 72.166.003c-5.267-.065-9.89.978-12.3 1.728-2.246-.398-4.66-.62-7.193-.66-4.749-.076-8.944.962-12.529 3.095a57 57 0 0 0-8.848-2.227C22.644.514 15.672 1.624 10.57 5.237c-6.175 4.375-9.038 11.975-8.509 22.59.168 3.37 2.048 13.625 5.009 23.35 1.701 5.59 3.515 10.232 5.392 13.798 2.661 5.058 5.51 8.035 8.706 9.105 1.792.599 5.048 1.018 8.472-1.842.434.527 1.013 1.05 1.782 1.537.976.618 2.17 1.122 3.361 1.42 4.296 1.078 8.319.808 11.752-.701.02.612.037 1.197.05 1.702.023.82.046 1.623.076 2.374.203 5.08.548 9.029 1.57 11.792.055.152.13.384.21.63.51 1.564 1.361 4.182 3.529 6.232C54.215 99.35 56.929 100 59.415 100c1.247 0 2.437-.164 3.48-.388 3.72-.8 7.944-2.017 11-6.38 2.889-4.125 4.293-10.337 4.547-20.126l.093-.793.06-.517.68.06.176.012c3.788.173 8.42-.633 11.265-1.958 2.248-1.046 9.452-4.86 7.756-10.008"/><path fill="#336791" d="M91.994 60.903c-11.264 2.33-12.038-1.494-12.038-1.494C91.848 41.713 96.82 19.251 92.53 13.753 80.825-1.243 60.564 5.85 60.226 6.033l-.109.02c-2.225-.463-4.716-.74-7.515-.785-5.096-.084-8.963 1.34-11.896 3.57 0 0-36.145-14.93-34.463 18.78.357 7.17 10.25 54.262 22.05 40.039 4.313-5.202 8.48-9.6 8.48-9.6 2.07 1.38 4.547 2.082 7.145 1.83l.202-.172c-.063.646-.034 1.277.08 2.025-3.04 3.406-2.146 4.004-8.223 5.258-6.149 1.271-2.537 3.533-.178 4.125 2.859.717 9.474 1.732 13.943-4.542l-.178.716c1.19.957 2.027 6.222 1.887 10.996-.14 4.773-.234 8.05.704 10.61.94 2.56 1.874 8.32 9.863 6.604 6.674-1.435 10.134-5.152 10.615-11.353.341-4.407 1.114-3.756 1.163-7.697l.62-1.865c.715-5.976.113-7.904 4.225-7.007l1 .088c3.027.138 6.988-.488 9.313-1.572 5.007-2.33 7.976-6.22 3.04-5.198"/><path fill="#fff" d="M42.821 30.825c-1.015-.142-1.934-.011-2.4.342a.88.88 0 0 0-.364.587c-.058.42.235.884.415 1.123.51.678 1.255 1.143 1.992 1.246q.16.022.319.022c1.229 0 2.347-.96 2.445-1.668.123-.887-1.161-1.479-2.407-1.652m33.627.028c-.097-.696-1.33-.894-2.502-.73-1.17.162-2.303.692-2.209 1.389.076.542 1.052 1.467 2.207 1.467q.146 0 .296-.02c.77-.108 1.337-.599 1.605-.882.41-.431.647-.912.603-1.224"/><path fill="#fff" d="M95.743 60.639c-.43-1.303-1.812-1.721-4.109-1.246-6.82 1.411-9.262.434-10.063-.158 5.3-8.098 9.66-17.886 12.013-27.018 1.114-4.326 1.73-8.343 1.78-11.618.056-3.594-.555-6.235-1.814-7.848-5.076-6.505-12.526-9.993-21.544-10.09-6.2-.069-11.437 1.522-12.453 1.97a31 31 0 0 0-7.008-.903c-4.654-.076-8.677 1.042-12.007 3.32a53.5 53.5 0 0 0-9.759-2.566c-7.905-1.277-14.187-.31-18.67 2.875-5.35 3.8-7.819 10.593-7.34 20.19.16 3.229 1.995 13.161 4.89 22.673 3.811 12.52 7.954 19.607 12.313 21.065.51.17 1.098.29 1.747.29 1.59 0 3.54-.719 5.568-3.164a201 201 0 0 1 7.674-8.707 12.34 12.34 0 0 0 5.52 1.489l.014.151q-.497.594-.973 1.206c-1.334 1.698-1.612 2.052-5.906 2.938-1.221.253-4.465.923-4.513 3.204-.052 2.491 3.835 3.538 4.277 3.648 1.543.388 3.03.579 4.448.579 3.447 0 6.482-1.136 8.906-3.335-.074 8.882.295 17.634 1.359 20.3.87 2.183 2.999 7.519 9.72 7.518.986 0 2.072-.115 3.266-.372 7.015-1.508 10.061-4.617 11.24-11.47.63-3.664 1.712-12.411 2.221-17.103 1.074.336 2.457.49 3.952.49 3.118 0 6.715-.665 8.972-1.715 2.534-1.18 7.108-4.077 6.279-6.593M79.038 28.933c-.024 1.385-.214 2.643-.415 3.956-.217 1.411-.442 2.87-.498 4.642-.056 1.725.16 3.517.367 5.251.42 3.502.85 7.107-.817 10.664q-.415-.739-.738-1.522c-.208-.504-.658-1.313-1.28-2.433-2.424-4.358-8.1-14.565-5.194-18.73.865-1.24 3.061-2.514 8.575-1.828M72.355 5.467c8.08.179 14.472 3.21 18.997 9.009 3.471 4.447-.35 24.686-11.415 42.145l-.336-.424-.14-.175c2.86-4.735 2.3-9.42 1.802-13.574-.204-1.704-.397-3.314-.348-4.827.05-1.602.262-2.977.467-4.306.25-1.638.506-3.333.436-5.332.053-.21.074-.457.046-.75-.18-1.917-2.361-7.652-6.808-12.842-2.432-2.839-5.98-6.016-10.822-8.159 2.083-.433 4.931-.836 8.12-.765M27.14 66.622c-2.234 2.694-3.777 2.177-4.285 2.008-3.306-1.106-7.143-8.114-10.526-19.227-2.927-9.615-4.637-19.285-4.773-21.996-.427-8.575 1.646-14.551 6.162-17.763 7.35-5.226 19.432-2.098 24.287-.511-.07.069-.142.133-.211.203-7.967 8.069-7.778 21.854-7.759 22.697 0 .325.027.785.064 1.418.137 2.319.392 6.634-.29 11.521-.633 4.541.763 8.986 3.83 12.195q.472.494.991.937a205 205 0 0 0-7.49 8.518m8.514-11.391c-2.471-2.587-3.594-6.184-3.08-9.872.72-5.162.454-9.658.311-12.073-.02-.338-.038-.635-.048-.868 1.164-1.035 6.558-3.933 10.404-3.05 1.755.404 2.825 1.603 3.27 3.664 2.301 10.674.304 15.122-1.3 18.697-.33.737-.643 1.433-.91 2.153l-.207.557c-.523 1.407-1.01 2.716-1.312 3.959-2.628-.008-5.184-1.134-7.128-3.168m.404 14.394c-.768-.192-1.458-.526-1.863-.803.339-.16.94-.377 1.984-.593 5.052-1.042 5.832-1.778 7.535-3.947.391-.498.834-1.061 1.447-1.748.914-1.026 1.332-.852 2.09-.537.613.254 1.211 1.026 1.454 1.875.114.401.243 1.163-.178 1.755-3.56 4.997-8.745 4.933-12.47 3.998m26.436 24.668c-6.18 1.328-8.368-1.834-9.81-5.448-.93-2.334-1.388-12.856-1.063-24.477a1.4 1.4 0 0 0-.06-.444 6 6 0 0 0-.173-.821c-.483-1.691-1.659-3.106-3.07-3.692-.56-.233-1.589-.66-2.825-.343.264-1.09.72-2.32 1.217-3.651l.208-.56c.234-.632.528-1.287.838-1.98 1.68-3.74 3.978-8.863 1.483-20.436-.935-4.335-4.056-6.452-8.789-5.96-2.836.294-5.432 1.442-6.727 2.1-.278.141-.532.278-.77.41.361-4.367 1.726-12.53 6.832-17.694C43 8.045 47.281 6.439 52.498 6.526c10.28.168 16.871 5.458 20.591 9.866 3.206 3.799 4.942 7.625 5.635 9.69-5.21-.532-8.753.499-10.55 3.074-3.907 5.601 2.138 16.473 5.044 21.698.533.957.993 1.785 1.137 2.136.946 2.3 2.171 3.835 3.065 4.955.275.343.54.677.743.967-1.578.457-4.412 1.51-4.154 6.779-.208 2.643-1.69 15.02-2.442 19.392-.994 5.776-3.114 7.928-9.074 9.21m25.795-29.6c-1.614.751-4.314 1.315-6.879 1.436-2.833.133-4.275-.319-4.615-.596-.159-3.283 1.06-3.626 2.35-3.99.202-.056.4-.112.59-.179q.179.146.391.287c2.277 1.507 6.339 1.67 12.073.483l.063-.013c-.774.726-2.097 1.699-3.974 2.572"/></svg>