<svg xmlns="http://www.w3.org/2000/svg" fill="none" viewBox="0 0 100 100"><g clip-path="url(#a)"><path fill="#61dafb" d="M50.3 58.8a8.8 8.8 0 1 0 0-17.6 8.8 8.8 0 0 0 0 17.6"/><path stroke="#61dafb" stroke-width="5" d="M50.3 68c26.1 0 47.3-8 47.3-18S76.4 32 50.3 32 3 40 3 50s21.2 18 47.3 18Z"/><path stroke="#61dafb" stroke-width="5" d="M34.7 59c13 22.7 30.6 37 39.3 32s5-27.4-8-50S35.2 4 26.6 9s-5.1 27.4 8 50Z"/><path stroke="#61dafb" stroke-width="5" d="M34.7 41c-13.1 22.6-16.7 45-8 50s26.2-9.3 39.2-32 16.7-45 8-50-26.2 9.3-39.2 32Z"/></g><defs><clipPath id="a"><path fill="#fff" d="M0 0h100v100H0z"/></clipPath></defs></svg>