<svg xmlns="http://www.w3.org/2000/svg" fill="none" viewBox="0 0 100 100"><g clip-path="url(#a)"><path fill="#06b6d4" d="M50 20q-20 0-25 20 7.5-10 17.5-7.5c3.8 1 6.5 3.7 9.5 6.8 5 5 10.6 10.7 23 10.7q20 0 25-20-7.5 10-17.5 7.5c-3.8-1-6.5-3.7-9.5-6.8-5-5-10.6-10.7-23-10.7M25 50Q5 50 0 70q7.5-10 17.5-7.5c3.8 1 6.5 3.7 9.5 6.8 5 5 10.6 10.7 23 10.7q20 0 25-20-7.5 10-17.5 7.5c-3.8-1-6.5-3.7-9.5-6.8-5-5-10.6-10.7-23-10.7"/></g><defs><clipPath id="a"><path fill="#fff" d="M0 0h100v100H0z"/></clipPath></defs></svg>